<svg xmlns="http://www.w3.org/2000/svg" width="1400" height="500"><style>.box{fill:#f5f5f5;stroke:#111;stroke-width:2;rx:12}.t,.title{font-family:Arial,sans-serif}.t{font-size:16px;text-anchor:middle}.title{font-size:28px;font-weight:700}</style><text x="40" y="45" class="title">v1 Roadmap</text><rect width="130" height="60" x="50" y="100" class="box"/><text x="115" y="135" class="t">0 Product</text><line x1="180" x2="210" y1="130" y2="130" stroke="#222" stroke-width="2" marker-end="url(#arrow)"/><rect width="130" height="60" x="210" y="100" class="box"/><text x="275" y="135" class="t">1 Shell</text><line x1="340" x2="370" y1="130" y2="130" stroke="#222" stroke-width="2" marker-end="url(#arrow)"/><rect width="130" height="60" x="370" y="100" class="box"/><text x="435" y="135" class="t">2 File Save</text><line x1="500" x2="530" y1="130" y2="130" stroke="#222" stroke-width="2" marker-end="url(#arrow)"/><rect width="130" height="60" x="530" y="100" class="box"/><text x="595" y="135" class="t">3 Editor</text><line x1="660" x2="690" y1="130" y2="130" stroke="#222" stroke-width="2" marker-end="url(#arrow)"/><rect width="130" height="60" x="690" y="100" class="box"/><text x="755" y="135" class="t">4 Workspace</text><line x1="820" x2="850" y1="130" y2="130" stroke="#222" stroke-width="2" marker-end="url(#arrow)"/><rect width="130" height="60" x="850" y="100" class="box"/><text x="915" y="135" class="t">5 Tabs</text><line x1="980" x2="1010" y1="130" y2="130" stroke="#222" stroke-width="2" marker-end="url(#arrow)"/><rect width="130" height="60" x="1010" y="100" class="box"/><text x="1075" y="135" class="t">6 Recovery</text><line x1="1140" x2="1170" y1="130" y2="130" stroke="#222" stroke-width="2" marker-end="url(#arrow)"/><rect width="130" height="60" x="1170" y="100" class="box"/><text x="1235" y="135" class="t">7 Switcher</text><line x1="1300" x2="1330" y1="130" y2="130" stroke="#222" stroke-width="2" marker-end="url(#arrow)"/><rect width="130" height="60" x="1330" y="100" class="box"/><text x="1395" y="135" class="t">8 Highlight</text><line x1="1460" x2="1490" y1="130" y2="130" stroke="#222" stroke-width="2" marker-end="url(#arrow)"/><rect width="130" height="60" x="1490" y="100" class="box"/><text x="1555" y="135" class="t">9 Themes</text><defs><marker id="arrow" markerHeight="10" markerUnits="strokeWidth" markerWidth="10" orient="auto" refX="8" refY="3"><path fill="#222" d="M0,0 L0,6 L9,3 z"/></marker></defs></svg>